<?xml version="1.0" encoding="UTF-8" standalone="no"?>
<svg
   width="571"
   height="503"
   version="1.1"
   id="svg378"
   sodipodi:docname="illustration-simple-ui.svg"
   inkscape:version="1.2 (dc2aedaf03, 2022-05-15)"
   xmlns:inkscape="http://www.inkscape.org/namespaces/inkscape"
   xmlns:sodipodi="http://sodipodi.sourceforge.net/DTD/sodipodi-0.dtd"
   xmlns:xlink="http://www.w3.org/1999/xlink"
   xmlns="http://www.w3.org/2000/svg"
   xmlns:svg="http://www.w3.org/2000/svg">
  <sodipodi:namedview
     id="namedview380"
     pagecolor="#505050"
     bordercolor="#eeeeee"
     borderopacity="1"
     inkscape:showpageshadow="0"
     inkscape:pageopacity="0"
     inkscape:pagecheckerboard="0"
     inkscape:deskcolor="#505050"
     showgrid="false"
     inkscape:zoom="1.2681818"
     inkscape:cx="361.14695"
     inkscape:cy="204.22939"
     inkscape:window-width="1920"
     inkscape:window-height="1017"
     inkscape:window-x="-8"
     inkscape:window-y="380"
     inkscape:window-maximized="1"
     inkscape:current-layer="svg378" />
  <defs
     id="defs135">
    <filter
       x="-0.37259849"
       y="-0.19243799"
       width="1.8422278"
       height="1.43499"
       filterUnits="objectBoundingBox"
       id="a">
      <feOffset
         dx="25"
         dy="25"
         in="SourceAlpha"
         result="shadowOffsetOuter1"
         id="feOffset2" />
      <feGaussianBlur
         stdDeviation="40"
         in="shadowOffsetOuter1"
         result="shadowBlurOuter1"
         id="feGaussianBlur4" />
      <feColorMatrix
         values="0 0 0 0 0.212302148 0 0 0 0 0.325209598 0 0 0 0 0.419299139 0 0 0 0.300726617 0"
         in="shadowBlurOuter1"
         id="feColorMatrix6" />
    </filter>
    <filter
       x="-0.17045455"
       y="-0.15706806"
       width="1.3977273"
       height="1.3664921"
       filterUnits="objectBoundingBox"
       id="g">
      <feMorphology
         radius="5"
         in="SourceAlpha"
         result="shadowSpreadOuter1"
         id="feMorphology9" />
      <feOffset
         dx="10"
         dy="10"
         in="shadowSpreadOuter1"
         result="shadowOffsetOuter1"
         id="feOffset11" />
      <feGaussianBlur
         stdDeviation="12.5"
         in="shadowOffsetOuter1"
         result="shadowBlurOuter1"
         id="feGaussianBlur13" />
      <feColorMatrix
         values="0 0 0 0 0.212302148 0 0 0 0 0.325209598 0 0 0 0 0.419299139 0 0 0 0.25 0"
         in="shadowBlurOuter1"
         id="feColorMatrix15" />
    </filter>
    <filter
       x="-0.37259849"
       y="-0.19243799"
       width="1.8422278"
       height="1.43499"
       filterUnits="objectBoundingBox"
       id="i">
      <feOffset
         dx="25"
         dy="25"
         in="SourceAlpha"
         result="shadowOffsetOuter1"
         id="feOffset18" />
      <feGaussianBlur
         stdDeviation="40"
         in="shadowOffsetOuter1"
         result="shadowBlurOuter1"
         id="feGaussianBlur20" />
      <feColorMatrix
         values="0 0 0 0 0.212302148 0 0 0 0 0.325209598 0 0 0 0 0.419299139 0 0 0 0.300726617 0"
         in="shadowBlurOuter1"
         id="feColorMatrix22" />
    </filter>
    <filter
       x="-0.14705882"
       y="-0.75"
       width="1.3431373"
       height="2.75"
       filterUnits="objectBoundingBox"
       id="m">
      <feMorphology
         radius="5"
         in="SourceAlpha"
         result="shadowSpreadOuter1"
         id="feMorphology25" />
      <feOffset
         dx="10"
         dy="10"
         in="shadowSpreadOuter1"
         result="shadowOffsetOuter1"
         id="feOffset27" />
      <feGaussianBlur
         stdDeviation="12.5"
         in="shadowOffsetOuter1"
         result="shadowBlurOuter1"
         id="feGaussianBlur29" />
      <feColorMatrix
         values="0 0 0 0 0.212302148 0 0 0 0 0.325209598 0 0 0 0 0.419299139 0 0 0 0.25 0"
         in="shadowBlurOuter1"
         id="feColorMatrix31" />
    </filter>
    <filter
       x="-0.14705882"
       y="-0.75"
       width="1.3431373"
       height="2.75"
       filterUnits="objectBoundingBox"
       id="o">
      <feMorphology
         radius="5"
         in="SourceAlpha"
         result="shadowSpreadOuter1"
         id="feMorphology34" />
      <feOffset
         dx="10"
         dy="10"
         in="shadowSpreadOuter1"
         result="shadowOffsetOuter1"
         id="feOffset36" />
      <feGaussianBlur
         stdDeviation="12.5"
         in="shadowOffsetOuter1"
         result="shadowBlurOuter1"
         id="feGaussianBlur38" />
      <feColorMatrix
         values="0 0 0 0 0.212302148 0 0 0 0 0.325209598 0 0 0 0 0.419299139 0 0 0 0.25 0"
         in="shadowBlurOuter1"
         id="feColorMatrix40" />
    </filter>
    <filter
       x="-0.14705882"
       y="-0.75"
       width="1.3431373"
       height="2.75"
       filterUnits="objectBoundingBox"
       id="q">
      <feMorphology
         radius="5"
         in="SourceAlpha"
         result="shadowSpreadOuter1"
         id="feMorphology43" />
      <feOffset
         dx="10"
         dy="10"
         in="shadowSpreadOuter1"
         result="shadowOffsetOuter1"
         id="feOffset45" />
      <feGaussianBlur
         stdDeviation="12.5"
         in="shadowOffsetOuter1"
         result="shadowBlurOuter1"
         id="feGaussianBlur47" />
      <feColorMatrix
         values="0 0 0 0 0.212302148 0 0 0 0 0.325209598 0 0 0 0 0.419299139 0 0 0 0.25 0"
         in="shadowBlurOuter1"
         id="feColorMatrix49" />
    </filter>
    <filter
       x="-0.14705882"
       y="-0.75"
       width="1.3431373"
       height="2.75"
       filterUnits="objectBoundingBox"
       id="s">
      <feMorphology
         radius="5"
         in="SourceAlpha"
         result="shadowSpreadOuter1"
         id="feMorphology52" />
      <feOffset
         dx="10"
         dy="10"
         in="shadowSpreadOuter1"
         result="shadowOffsetOuter1"
         id="feOffset54" />
      <feGaussianBlur
         stdDeviation="12.5"
         in="shadowOffsetOuter1"
         result="shadowBlurOuter1"
         id="feGaussianBlur56" />
      <feColorMatrix
         values="0 0 0 0 0.212302148 0 0 0 0 0.325209598 0 0 0 0 0.419299139 0 0 0 0.25 0"
         in="shadowBlurOuter1"
         id="feColorMatrix58" />
    </filter>
    <filter
       x="-0.14705882"
       y="-0.75"
       width="1.3431373"
       height="2.75"
       filterUnits="objectBoundingBox"
       id="u">
      <feMorphology
         radius="5"
         in="SourceAlpha"
         result="shadowSpreadOuter1"
         id="feMorphology61" />
      <feOffset
         dx="10"
         dy="10"
         in="shadowSpreadOuter1"
         result="shadowOffsetOuter1"
         id="feOffset63" />
      <feGaussianBlur
         stdDeviation="12.5"
         in="shadowOffsetOuter1"
         result="shadowBlurOuter1"
         id="feGaussianBlur65" />
      <feColorMatrix
         values="0 0 0 0 0.212302148 0 0 0 0 0.325209598 0 0 0 0 0.419299139 0 0 0 0.25 0"
         in="shadowBlurOuter1"
         id="feColorMatrix67" />
    </filter>
    <filter
       x="-0.14705882"
       y="-0.75"
       width="1.3431373"
       height="2.75"
       filterUnits="objectBoundingBox"
       id="w">
      <feMorphology
         radius="5"
         in="SourceAlpha"
         result="shadowSpreadOuter1"
         id="feMorphology70" />
      <feOffset
         dx="10"
         dy="10"
         in="shadowSpreadOuter1"
         result="shadowOffsetOuter1"
         id="feOffset72" />
      <feGaussianBlur
         stdDeviation="12.5"
         in="shadowOffsetOuter1"
         result="shadowBlurOuter1"
         id="feGaussianBlur74" />
      <feColorMatrix
         values="0 0 0 0 0.212302148 0 0 0 0 0.325209598 0 0 0 0 0.419299139 0 0 0 0.25 0"
         in="shadowBlurOuter1"
         id="feColorMatrix76" />
    </filter>
    <filter
       x="-0.14705882"
       y="-0.75"
       width="1.3431373"
       height="2.75"
       filterUnits="objectBoundingBox"
       id="y">
      <feMorphology
         radius="5"
         in="SourceAlpha"
         result="shadowSpreadOuter1"
         id="feMorphology79" />
      <feOffset
         dx="10"
         dy="10"
         in="shadowSpreadOuter1"
         result="shadowOffsetOuter1"
         id="feOffset81" />
      <feGaussianBlur
         stdDeviation="12.5"
         in="shadowOffsetOuter1"
         result="shadowBlurOuter1"
         id="feGaussianBlur83" />
      <feColorMatrix
         values="0 0 0 0 0.212302148 0 0 0 0 0.325209598 0 0 0 0 0.419299139 0 0 0 0.25 0"
         in="shadowBlurOuter1"
         id="feColorMatrix85" />
    </filter>
    <filter
       x="-0.14705882"
       y="-0.53571429"
       width="1.3431373"
       height="2.25"
       filterUnits="objectBoundingBox"
       id="A">
      <feMorphology
         radius="5"
         in="SourceAlpha"
         result="shadowSpreadOuter1"
         id="feMorphology88" />
      <feOffset
         dx="10"
         dy="10"
         in="shadowSpreadOuter1"
         result="shadowOffsetOuter1"
         id="feOffset90" />
      <feGaussianBlur
         stdDeviation="12.5"
         in="shadowOffsetOuter1"
         result="shadowBlurOuter1"
         id="feGaussianBlur92" />
      <feColorMatrix
         values="0 0 0 0 0.212302148 0 0 0 0 0.325209598 0 0 0 0 0.419299139 0 0 0 0.25 0"
         in="shadowBlurOuter1"
         id="feColorMatrix94" />
    </filter>
    <rect
       id="h"
       x="0"
       y="0"
       width="176"
       height="191"
       rx="5" />
    <rect
       id="n"
       x="0"
       y="0"
       width="204"
       height="40"
       rx="5" />
    <rect
       id="p"
       x="0"
       y="0"
       width="204"
       height="40"
       rx="5" />
    <rect
       id="r"
       x="0"
       y="0"
       width="204"
       height="40"
       rx="5" />
    <rect
       id="t"
       x="0"
       y="0"
       width="204"
       height="40"
       rx="5" />
    <rect
       id="v"
       x="0"
       y="0"
       width="204"
       height="40"
       rx="5" />
    <rect
       id="x"
       x="0"
       y="0"
       width="204"
       height="40"
       rx="5" />
    <rect
       id="z"
       x="0"
       y="0"
       width="204"
       height="40"
       rx="5" />
    <rect
       id="B"
       x="0"
       y="0"
       width="204"
       height="56"
       rx="5" />
    <path
       d="M 35.776,0.57 H 227.01 c 18.34,0 33.208,14.235 33.208,31.795 v 435.27 c 0,17.56 -14.867,31.796 -33.208,31.796 H 35.776 c -18.34,0 -33.208,-14.236 -33.208,-31.796 V 32.365 c 0,-17.56 14.868,-31.796 33.208,-31.796 z"
       id="b" />
    <path
       d="M 93.602,0 H 19.196 C 8.09,0 0,7.563 0,17.441 v 422.39 c 0,12.88 12.502,24.292 26.64,24.292 h 179.332 c 13.618,0 26.64,-11.5 26.64,-24.292 V 18.583 C 232.612,6.743 223.822,0.07 213.416,0 H 137.83 c -0.287,0.047 -5.479,2.182 -7.673,7.563 -2.195,5.382 -6.61,9.672 -11.445,9.672 h -5.615 c -2.298,0 -8.348,-2.23 -11.411,-9.672 C 98.623,0.121 93.888,0.047 93.602,0 Z"
       id="f" />
    <path
       d="M 35.776,0.57 H 227.01 c 18.34,0 33.208,14.235 33.208,31.795 v 435.27 c 0,17.56 -14.867,31.796 -33.208,31.796 H 35.776 c -18.34,0 -33.208,-14.236 -33.208,-31.796 V 32.365 c 0,-17.56 14.868,-31.796 33.208,-31.796 z"
       id="j" />
    <path
       d="M 93.602,0 H 19.196 C 8.09,0 0,7.563 0,17.441 v 422.39 c 0,12.88 12.502,24.292 26.64,24.292 h 179.332 c 13.618,0 26.64,-11.5 26.64,-24.292 V 18.583 C 232.612,6.743 223.822,0.07 213.416,0 H 137.83 c -0.287,0.047 -5.479,2.182 -7.673,7.563 -2.195,5.382 -6.61,9.672 -11.445,9.672 h -5.615 c -2.298,0 -8.348,-2.23 -11.411,-9.672 C 98.623,0.121 93.888,0.047 93.602,0 Z"
       id="k" />
    <linearGradient
       x1="0.5"
       y1="0"
       x2="0.5"
       y2="1"
       id="c">
      <stop
         stop-color="#454545"
         offset="0%"
         id="stop110" />
      <stop
         stop-color="#999"
         offset="22.628%"
         id="stop112" />
      <stop
         stop-color="#FFF"
         offset="100%"
         id="stop114" />
    </linearGradient>
    <linearGradient
       x1="1"
       y1="0.5"
       x2="0.30702001"
       y2="0.5"
       id="d">
      <stop
         stop-color="#FFF"
         stop-opacity="0"
         offset="0%"
         id="stop117" />
      <stop
         stop-color="#BABABA"
         offset="22.218%"
         id="stop119" />
      <stop
         stop-color="#FFF"
         stop-opacity="0"
         offset="54.678%"
         id="stop121" />
      <stop
         stop-color="#FFF"
         stop-opacity="0"
         offset="100%"
         id="stop123" />
    </linearGradient>
    <linearGradient
       x1="1"
       y1="0.5"
       x2="0.30590999"
       y2="0.5"
       id="e">
      <stop
         stop-color="#FFF"
         stop-opacity="0"
         offset="0%"
         id="stop126" />
      <stop
         stop-color="#BABABA"
         offset="22.218%"
         id="stop128" />
      <stop
         stop-color="#FFF"
         stop-opacity="0"
         offset="54.678%"
         id="stop130" />
      <stop
         stop-color="#FFF"
         stop-opacity="0"
         offset="100%"
         id="stop132" />
    </linearGradient>
    <linearGradient
       inkscape:collect="always"
       xlink:href="#c"
       id="linearGradient613"
       x1="29.020227"
       y1="0"
       x2="29.020227"
       y2="54.683819"
       gradientTransform="scale(4.437181,0.22536831)"
       gradientUnits="userSpaceOnUse" />
    <linearGradient
       inkscape:collect="always"
       xlink:href="#d"
       id="linearGradient615"
       x1="1512.1223"
       y1="42.378498"
       x2="1456.5737"
       y2="42.378498"
       gradientTransform="scale(0.17031361,5.8715215)"
       gradientUnits="userSpaceOnUse" />
    <linearGradient
       inkscape:collect="always"
       xlink:href="#e"
       id="linearGradient617"
       x1="80.158012"
       y1="42.378498"
       x2="24.52047"
       y2="42.378498"
       gradientTransform="scale(0.17031361,5.8715215)"
       gradientUnits="userSpaceOnUse" />
    <linearGradient
       inkscape:collect="always"
       xlink:href="#c"
       id="linearGradient619"
       x1="29.020227"
       y1="0"
       x2="29.020227"
       y2="54.683819"
       gradientTransform="scale(4.437181,0.22536831)"
       gradientUnits="userSpaceOnUse" />
    <linearGradient
       inkscape:collect="always"
       xlink:href="#d"
       id="linearGradient621"
       x1="1512.1223"
       y1="42.378498"
       x2="1456.5737"
       y2="42.378498"
       gradientTransform="scale(0.17031361,5.8715215)"
       gradientUnits="userSpaceOnUse" />
    <linearGradient
       inkscape:collect="always"
       xlink:href="#e"
       id="linearGradient623"
       x1="80.158012"
       y1="42.378498"
       x2="24.52047"
       y2="42.378498"
       gradientTransform="scale(0.17031361,5.8715215)"
       gradientUnits="userSpaceOnUse" />
  </defs>
  <g
     fill="none"
     fill-rule="evenodd"
     id="g376"
     transform="translate(-50.100358,-54.831541)">
    <g
       transform="translate(356,55)"
       id="g141">
      <use
         fill="#000000"
         filter="url(#a)"
         xlink:href="#b"
         id="use137" />
      <use
         fill="#213648"
         xlink:href="#b"
         id="use139" />
    </g>
    <path
       d="M 225.18,0 H 32.356 C 23.352,0.549 15.05,4.657 7.447,12.324 c 4.89,-4.268 13.61,-9.98 25.14,-9.98 h 192.362 c 11.53,0 20.25,5.712 25.14,9.98 C 242.486,4.657 234.183,0.549 225.18,0 Z"
       fill-opacity="0.65"
       fill="url(#c)"
       opacity="0.596"
       transform="translate(358.568,55)"
       id="path143"
       style="fill:url(#linearGradient613)" />
    <path
       d="M 252.431,462.67 V 34.983 c 0,-11.476 -4.217,-15.718 -6.733,-18.442 -2.516,-2.723 -2.623,-4.113 0.992,-2.056 3.615,2.056 10.845,8.047 10.845,20.498 V 462.67 c 0,12.451 -7.23,18.441 -10.845,20.498 -3.615,2.056 -3.508,0.667 -0.992,-2.057 2.516,-2.724 6.733,-6.966 6.733,-18.441 z"
       fill="url(#d)"
       opacity="0.75"
       transform="translate(358.568,55)"
       id="path145"
       style="fill:url(#linearGradient615)" />
    <path
       d="M 8.548,462.67 V 34.983 c 0,-11.476 -4.217,-15.718 -6.733,-18.442 -2.516,-2.723 -2.623,-4.113 0.992,-2.056 3.615,2.056 10.845,8.047 10.845,20.498 V 462.67 c 0,12.451 -7.23,18.441 -10.845,20.498 -3.615,2.056 -3.508,0.667 -0.992,-2.057 2.516,-2.724 6.733,-6.966 6.733,-18.441 z"
       fill="url(#e)"
       opacity="0.75"
       transform="matrix(-1,0,0,1,372.22,55)"
       id="path147"
       style="fill:url(#linearGradient617)" />
    <g
       fill="#2e423c"
       id="g151">
      <path
         d="m 358,156.556 h 0.965 a 2,2 0 0 1 2,2 v 60.351 a 2,2 0 0 1 -2,2 H 358 a 2,2 0 0 1 -2,-2 v -60.35 a 2,2 0 0 1 2,-2 z m 257.535,52.487 h 0.965 a 2,2 0 0 1 2,2 v 42.95 a 2,2 0 0 1 -2,2 h -0.965 a 2,2 0 0 1 -2,-2 v -42.95 a 2,2 0 0 1 2,-2 z"
         id="path149" />
    </g>
    <g
       transform="translate(371.074,67.444)"
       id="g155">
      <use
         fill="#36536b"
         xlink:href="#f"
         id="use153" />
    </g>
    <g
       id="g187">
      <g
         transform="translate(399,197)"
         id="g161">
        <use
           fill="#000000"
           filter="url(#g)"
           xlink:href="#h"
           id="use157" />
        <use
           fill="#fbfcfe"
           xlink:href="#h"
           id="use159" />
      </g>
      <text
         font-family="PublicSans-Thin_Medium, 'Public Sans'"
         font-size="13px"
         font-style="condensed"
         font-weight="400"
         letter-spacing="-0.1"
         fill="#36536b"
         transform="translate(413,233)"
         id="text171"><tspan
           x="18.222"
           y="80"
           id="tspan163">Payment of</tspan><tspan
           x="88.749001"
           y="80"
           font-family="PublicSans-Bold, 'Public Sans'"
           font-weight="bold"
           id="tspan165">$9204</tspan><tspan
           x="23.736"
           y="98"
           id="tspan167">is completed and</tspan><tspan
           x="4.6760001"
           y="116"
           id="tspan169">processed successfully</tspan></text>
      <g
         transform="translate(458,233)"
         id="g177">
        <circle
           fill="#ba4270"
           opacity="0.25"
           cx="28"
           cy="28"
           r="28"
           id="circle173" />
        <path
           stroke="#ba4270"
           stroke-width="3"
           d="M 19,29.696 23.577,34.273 36.85,21"
           id="path175" />
      </g>
      <g
         transform="translate(422,373)"
         id="g185">
        <rect
           fill="#ba4270"
           width="131"
           height="30"
           rx="15"
           id="rect179"
           x="0"
           y="0" />
        <text
           font-family="PublicSans-Bold, 'Public Sans'"
           font-size="11px"
           font-weight="bold"
           letter-spacing="-0.085"
           fill="#fbfcfe"
           id="text183"><tspan
             x="45.726002"
             y="19"
             id="tspan181">Dismiss</tspan></text>
      </g>
    </g>
    <g
       id="g374">
      <g
         transform="translate(53,55)"
         id="g193">
        <use
           fill="#000000"
           filter="url(#i)"
           xlink:href="#j"
           id="use189" />
        <use
           fill="#213648"
           xlink:href="#j"
           id="use191" />
      </g>
      <path
         d="M 225.18,0 H 32.356 C 23.352,0.549 15.05,4.657 7.447,12.324 c 4.89,-4.268 13.61,-9.98 25.14,-9.98 h 192.362 c 11.53,0 20.25,5.712 25.14,9.98 C 242.486,4.657 234.183,0.549 225.18,0 Z"
         fill-opacity="0.65"
         fill="url(#c)"
         opacity="0.596"
         transform="translate(55.568,55)"
         id="path195"
         style="fill:url(#linearGradient619)" />
      <path
         d="M 252.431,462.67 V 34.983 c 0,-11.476 -4.217,-15.718 -6.733,-18.442 -2.516,-2.723 -2.623,-4.113 0.992,-2.056 3.615,2.056 10.845,8.047 10.845,20.498 V 462.67 c 0,12.451 -7.23,18.441 -10.845,20.498 -3.615,2.056 -3.508,0.667 -0.992,-2.057 2.516,-2.724 6.733,-6.966 6.733,-18.441 z"
         fill="url(#d)"
         opacity="0.75"
         transform="translate(55.568,55)"
         id="path197"
         style="fill:url(#linearGradient621)" />
      <path
         d="M 8.548,462.67 V 34.983 c 0,-11.476 -4.217,-15.718 -6.733,-18.442 -2.516,-2.723 -2.623,-4.113 0.992,-2.056 3.615,2.056 10.845,8.047 10.845,20.498 V 462.67 c 0,12.451 -7.23,18.441 -10.845,20.498 -3.615,2.056 -3.508,0.667 -0.992,-2.057 2.516,-2.724 6.733,-6.966 6.733,-18.441 z"
         fill="url(#e)"
         opacity="0.75"
         transform="matrix(-1,0,0,1,69.22,55)"
         id="path199"
         style="fill:url(#linearGradient623)" />
      <g
         fill="#2e423c"
         id="g203">
        <path
           d="m 55,156.556 h 0.965 a 2,2 0 0 1 2,2 v 60.351 a 2,2 0 0 1 -2,2 H 55 a 2,2 0 0 1 -2,-2 v -60.35 a 2,2 0 0 1 2,-2 z m 257.535,52.487 h 0.965 a 2,2 0 0 1 2,2 v 42.95 a 2,2 0 0 1 -2,2 h -0.965 a 2,2 0 0 1 -2,-2 v -42.95 a 2,2 0 0 1 2,-2 z"
           id="path201" />
      </g>
      <g
         transform="translate(68.074,67.444)"
         id="g372">
        <mask
           id="l"
           fill="#ffffff">
          <use
             xlink:href="#k"
             id="use205" />
        </mask>
        <use
           fill="#edf3f8"
           xlink:href="#k"
           id="use208" />
        <g
           mask="url(#l)"
           id="g328">
          <g
             transform="translate(14.926,160.556)"
             id="g214">
            <use
               fill="#000000"
               filter="url(#m)"
               xlink:href="#n"
               id="use210" />
            <use
               fill="#fbfcfe"
               xlink:href="#n"
               id="use212" />
          </g>
          <g
             fill="#36536b"
             id="g224">
            <text
               opacity="0.7"
               font-family="PublicSans-Thin_Medium, 'Public Sans'"
               font-size="10px"
               font-style="condensed"
               font-weight="400"
               letter-spacing="-0.077"
               transform="translate(30.926,171.556)"
               id="text218"><tspan
                 x="0"
                 y="9"
                 id="tspan216">Item #001</tspan></text>
            <text
               font-family="PublicSans-Bold, 'Public Sans'"
               font-size="13px"
               font-weight="bold"
               letter-spacing="-0.1"
               transform="translate(30.926,171.556)"
               id="text222"><tspan
                 x="146.631"
                 y="13"
                 id="tspan220">$29</tspan></text>
          </g>
          <g
             transform="translate(14.926,208.556)"
             id="g230">
            <use
               fill="#000000"
               filter="url(#o)"
               xlink:href="#p"
               id="use226" />
            <use
               fill="#fbfcfe"
               xlink:href="#p"
               id="use228" />
          </g>
          <g
             fill="#36536b"
             id="g240">
            <text
               opacity="0.7"
               font-family="PublicSans-Thin_Medium, 'Public Sans'"
               font-size="10px"
               font-style="condensed"
               font-weight="400"
               letter-spacing="-0.077"
               transform="translate(30.926,219.556)"
               id="text234"><tspan
                 x="0"
                 y="9"
                 id="tspan232">Item #002</tspan></text>
            <text
               font-family="PublicSans-Bold, 'Public Sans'"
               font-size="13px"
               font-weight="bold"
               letter-spacing="-0.1"
               transform="translate(30.926,219.556)"
               id="text238"><tspan
                 x="140.836"
                 y="13"
                 id="tspan236">$105</tspan></text>
          </g>
          <g
             transform="translate(14.926,256.556)"
             id="g246">
            <use
               fill="#000000"
               filter="url(#q)"
               xlink:href="#r"
               id="use242" />
            <use
               fill="#fbfcfe"
               xlink:href="#r"
               id="use244" />
          </g>
          <g
             fill="#36536b"
             id="g256">
            <text
               opacity="0.7"
               font-family="PublicSans-Thin_Medium, 'Public Sans'"
               font-size="10px"
               font-style="condensed"
               font-weight="400"
               letter-spacing="-0.077"
               transform="translate(30.926,267.556)"
               id="text250"><tspan
                 x="0"
                 y="9"
                 id="tspan248">Item #003</tspan></text>
            <text
               font-family="PublicSans-Bold, 'Public Sans'"
               font-size="13px"
               font-weight="bold"
               letter-spacing="-0.1"
               transform="translate(30.926,267.556)"
               id="text254"><tspan
                 x="140.888"
                 y="13"
                 id="tspan252">$810</tspan></text>
          </g>
          <g
             transform="translate(14.926,304.556)"
             id="g262">
            <use
               fill="#000000"
               filter="url(#s)"
               xlink:href="#t"
               id="use258" />
            <use
               fill="#fbfcfe"
               xlink:href="#t"
               id="use260" />
          </g>
          <g
             fill="#36536b"
             id="g272">
            <text
               opacity="0.7"
               font-family="PublicSans-Thin_Medium, 'Public Sans'"
               font-size="10px"
               font-style="condensed"
               font-weight="400"
               letter-spacing="-0.077"
               transform="translate(30.926,315.556)"
               id="text266"><tspan
                 x="0"
                 y="9"
                 id="tspan264">Item #004</tspan></text>
            <text
               font-family="PublicSans-Bold, 'Public Sans'"
               font-size="13px"
               font-weight="bold"
               letter-spacing="-0.1"
               transform="translate(30.926,315.556)"
               id="text270"><tspan
                 x="132.701"
                 y="13"
                 id="tspan268">$1044</tspan></text>
          </g>
          <g
             id="g290">
            <g
               transform="translate(14.926,352.556)"
               id="g278">
              <use
                 fill="#000000"
                 filter="url(#u)"
                 xlink:href="#v"
                 id="use274" />
              <use
                 fill="#fbfcfe"
                 xlink:href="#v"
                 id="use276" />
            </g>
            <g
               fill="#36536b"
               id="g288">
              <text
                 opacity="0.7"
                 font-family="PublicSans-Thin_Medium, 'Public Sans'"
                 font-size="10px"
                 font-style="condensed"
                 font-weight="400"
                 letter-spacing="-0.077"
                 transform="translate(30.926,363.556)"
                 id="text282"><tspan
                   x="0"
                   y="9"
                   id="tspan280">Item #005</tspan></text>
              <text
                 font-family="PublicSans-Bold, 'Public Sans'"
                 font-size="13px"
                 font-weight="bold"
                 letter-spacing="-0.1"
                 transform="translate(30.926,363.556)"
                 id="text286"><tspan
                   x="146.547"
                   y="13"
                   id="tspan284">$40</tspan></text>
            </g>
          </g>
          <g
             id="g308">
            <g
               transform="translate(14.926,400.556)"
               id="g296">
              <use
                 fill="#000000"
                 filter="url(#w)"
                 xlink:href="#x"
                 id="use292" />
              <use
                 fill="#fbfcfe"
                 xlink:href="#x"
                 id="use294" />
            </g>
            <g
               fill="#36536b"
               id="g306">
              <text
                 opacity="0.7"
                 font-family="PublicSans-Thin_Medium, 'Public Sans'"
                 font-size="10px"
                 font-style="condensed"
                 font-weight="400"
                 letter-spacing="-0.077"
                 transform="translate(30.926,411.556)"
                 id="text300"><tspan
                   x="0"
                   y="9"
                   id="tspan298">Item #006</tspan></text>
              <text
                 font-family="PublicSans-Bold, 'Public Sans'"
                 font-size="13px"
                 font-weight="bold"
                 letter-spacing="-0.1"
                 transform="translate(30.926,411.556)"
                 id="text304"><tspan
                   x="129.489"
                   y="13"
                   id="tspan302">$2566</tspan></text>
            </g>
          </g>
          <g
             id="g326">
            <g
               transform="translate(14.926,448.556)"
               id="g314">
              <use
                 fill="#000000"
                 filter="url(#y)"
                 xlink:href="#z"
                 id="use310" />
              <use
                 fill="#fbfcfe"
                 xlink:href="#z"
                 id="use312" />
            </g>
            <g
               fill="#36536b"
               id="g324">
              <text
                 opacity="0.7"
                 font-family="PublicSans-Thin_Medium, 'Public Sans'"
                 font-size="10px"
                 font-style="condensed"
                 font-weight="400"
                 letter-spacing="-0.077"
                 transform="translate(30.926,459.556)"
                 id="text318"><tspan
                   x="0"
                   y="9"
                   id="tspan316">Item #001</tspan></text>
              <text
                 font-family="PublicSans-Bold, 'Public Sans'"
                 font-size="13px"
                 font-weight="bold"
                 letter-spacing="-0.1"
                 transform="translate(30.926,459.556)"
                 id="text322"><tspan
                   x="132.466"
                   y="13"
                   id="tspan320">$4199</tspan></text>
            </g>
          </g>
        </g>
        <path
           fill="#36536b"
           mask="url(#l)"
           d="M 0,0 H 233 V 114 H 0 Z"
           id="path330" />
        <g
           mask="url(#l)"
           id="g346">
          <g
             transform="translate(14.926,80.556)"
             id="g336">
            <use
               fill="#000000"
               filter="url(#A)"
               xlink:href="#B"
               id="use332" />
            <use
               fill="#fbfcfe"
               xlink:href="#B"
               id="use334" />
          </g>
          <text
             opacity="0.7"
             font-family="PublicSans-Thin_Medium, 'Public Sans'"
             font-size="10px"
             font-style="condensed"
             font-weight="400"
             letter-spacing="-0.077"
             transform="translate(14.926,80.556)"
             id="text340"><tspan
               x="16.231001"
               y="28"
               fill="#36536b"
               id="tspan338">Total payment</tspan></text>
          <text
             font-family="PublicSans-Bold, 'Public Sans'"
             font-size="20px"
             font-weight="bold"
             letter-spacing="-0.154"
             transform="translate(14.926,80.556)"
             id="text344"><tspan
               x="123.339"
               y="35"
               fill="#ba4270"
               id="tspan342">$9204</tspan></text>
        </g>
        <g
           fill="#ffffff"
           mask="url(#l)"
           id="g370">
          <path
             d="m 105.848,54.988 v -4.952 h 0.04 c 0.351,0.512 0.799,0.9 1.345,1.162 a 4.069,4.069 0 0 0 1.788,0.394 c 0.768,0 1.439,-0.148 2.011,-0.444 a 4.256,4.256 0 0 0 1.435,-1.193 c 0.384,-0.498 0.67,-1.071 0.86,-1.718 0.188,-0.646 0.282,-1.32 0.282,-2.02 0,-0.742 -0.094,-1.453 -0.283,-2.133 a 5.206,5.206 0 0 0 -0.869,-1.789 4.381,4.381 0 0 0 -1.475,-1.232 c -0.593,-0.31 -1.3,-0.465 -2.122,-0.465 -0.647,0 -1.24,0.128 -1.779,0.384 -0.539,0.256 -0.983,0.667 -1.334,1.233 h -0.04 V 40.88 h -2.729 v 14.107 h 2.87 z m 2.405,-5.538 c -0.458,0 -0.849,-0.094 -1.172,-0.283 a 2.27,2.27 0 0 1 -0.778,-0.738 3.185,3.185 0 0 1 -0.424,-1.06 5.805,5.805 0 0 1 -0.132,-1.234 c 0,-0.43 0.04,-0.848 0.121,-1.253 0.081,-0.404 0.22,-0.76 0.415,-1.07 a 2.36,2.36 0 0 1 0.768,-0.759 c 0.316,-0.195 0.71,-0.293 1.182,-0.293 0.458,0 0.846,0.098 1.162,0.293 0.317,0.196 0.576,0.452 0.778,0.768 0.202,0.317 0.347,0.677 0.435,1.082 0.087,0.404 0.131,0.815 0.131,1.232 0,0.418 -0.04,0.829 -0.121,1.233 -0.08,0.404 -0.219,0.758 -0.414,1.061 a 2.3,2.3 0 0 1 -0.768,0.738 c -0.317,0.189 -0.711,0.283 -1.183,0.283 z m 10.031,2.142 a 6.49,6.49 0 0 0 1.9,-0.283 3.74,3.74 0 0 0 1.617,-0.99 4.312,4.312 0 0 0 0.202,1.01 h 2.91 c -0.135,-0.215 -0.229,-0.538 -0.283,-0.97 -0.054,-0.43 -0.08,-0.882 -0.08,-1.354 V 43.57 c 0,-0.634 -0.142,-1.142 -0.425,-1.526 a 2.907,2.907 0 0 0 -1.092,-0.9 4.884,4.884 0 0 0 -1.475,-0.434 11.711,11.711 0 0 0 -1.597,-0.111 8.79,8.79 0 0 0 -1.728,0.172 4.932,4.932 0 0 0 -1.546,0.576 3.44,3.44 0 0 0 -1.131,1.07 c -0.297,0.445 -0.465,1.004 -0.506,1.678 h 2.87 c 0.054,-0.566 0.243,-0.97 0.566,-1.212 0.323,-0.243 0.768,-0.364 1.334,-0.364 0.256,0 0.495,0.017 0.717,0.05 0.223,0.034 0.418,0.101 0.587,0.202 0.168,0.101 0.303,0.243 0.404,0.425 0.1,0.182 0.151,0.428 0.151,0.737 0.014,0.297 -0.074,0.523 -0.262,0.678 -0.189,0.154 -0.445,0.272 -0.768,0.353 -0.324,0.081 -0.694,0.142 -1.112,0.182 -0.418,0.04 -0.842,0.094 -1.273,0.162 -0.431,0.067 -0.86,0.158 -1.284,0.273 a 3.622,3.622 0 0 0 -1.131,0.515 c -0.33,0.229 -0.6,0.536 -0.809,0.92 -0.209,0.384 -0.313,0.872 -0.313,1.465 0,0.539 0.09,1.004 0.273,1.394 0.182,0.391 0.434,0.714 0.758,0.97 0.323,0.256 0.7,0.445 1.131,0.566 0.432,0.122 0.896,0.182 1.395,0.182 z m 1.071,-1.9 c -0.229,0 -0.451,-0.02 -0.667,-0.06 a 1.62,1.62 0 0 1 -0.566,-0.212 1.085,1.085 0 0 1 -0.384,-0.415 1.35,1.35 0 0 1 -0.141,-0.646 c 0,-0.27 0.047,-0.492 0.141,-0.667 0.095,-0.176 0.22,-0.32 0.374,-0.435 0.155,-0.114 0.337,-0.205 0.546,-0.273 0.209,-0.067 0.42,-0.121 0.636,-0.161 0.23,-0.04 0.459,-0.075 0.688,-0.101 0.229,-0.027 0.448,-0.061 0.656,-0.102 0.21,-0.04 0.405,-0.09 0.587,-0.151 0.181,-0.06 0.333,-0.145 0.454,-0.253 v 1.071 c 0,0.162 -0.017,0.378 -0.05,0.647 -0.034,0.27 -0.125,0.536 -0.273,0.798 a 1.892,1.892 0 0 1 -0.687,0.678 c -0.31,0.188 -0.748,0.282 -1.314,0.282 z m 8.818,5.296 c 0.984,0 1.752,-0.182 2.304,-0.546 0.553,-0.364 0.984,-0.97 1.294,-1.819 l 4.365,-11.742 h -2.97 l -2.285,7.154 h -0.04 l -2.365,-7.154 h -3.052 l 3.659,9.802 c 0.08,0.202 0.12,0.417 0.12,0.647 0,0.31 -0.09,0.592 -0.272,0.848 -0.182,0.256 -0.461,0.405 -0.839,0.445 a 5.955,5.955 0 0 1 -0.849,-0.02 l -0.828,-0.081 v 2.365 c 0.296,0.027 0.59,0.05 0.879,0.07 0.29,0.02 0.583,0.03 0.88,0.03 z m 11.81,-3.416 c 0.498,0 0.956,-0.06 1.374,-0.182 0.417,-0.121 0.791,-0.29 1.121,-0.505 0.33,-0.216 0.61,-0.462 0.839,-0.738 0.23,-0.276 0.404,-0.57 0.526,-0.879 h 0.04 v 0.546 c 0,0.215 0.017,0.414 0.05,0.596 0.034,0.182 0.098,0.34 0.192,0.475 a 0.971,0.971 0 0 0 0.415,0.323 c 0.182,0.081 0.428,0.122 0.737,0.122 0.216,0 0.425,-0.027 0.627,-0.081 v -0.647 c -0.243,0.04 -0.431,0.06 -0.566,0.06 -0.175,0 -0.31,-0.036 -0.404,-0.11 a 0.607,0.607 0 0 1 -0.202,-0.294 1.489,1.489 0 0 1 -0.071,-0.404 9.79,9.79 0 0 1 -0.01,-0.444 v -6.043 c 0,-0.795 -0.286,-1.439 -0.859,-1.93 -0.573,-0.492 -1.485,-0.738 -2.739,-0.738 -1.253,0 -2.22,0.286 -2.9,0.859 -0.68,0.572 -1.047,1.431 -1.101,2.577 h 0.768 c 0.054,-0.93 0.367,-1.624 0.94,-2.082 0.572,-0.458 1.323,-0.687 2.253,-0.687 0.526,0 0.97,0.054 1.334,0.161 a 2.5,2.5 0 0 1 0.89,0.445 c 0.228,0.189 0.397,0.404 0.504,0.647 0.108,0.242 0.162,0.505 0.162,0.788 0,0.364 -0.02,0.667 -0.06,0.91 -0.04,0.242 -0.142,0.44 -0.304,0.596 -0.161,0.155 -0.4,0.276 -0.717,0.363 -0.317,0.088 -0.751,0.152 -1.304,0.192 l -1.192,0.102 c -0.418,0.04 -0.852,0.107 -1.304,0.202 a 3.945,3.945 0 0 0 -1.233,0.475 c -0.37,0.222 -0.677,0.525 -0.92,0.909 -0.242,0.384 -0.363,0.88 -0.363,1.486 0,0.997 0.303,1.734 0.91,2.213 0.606,0.478 1.461,0.717 2.566,0.717 z m 0.02,-0.667 c -0.85,0 -1.516,-0.185 -2.001,-0.556 -0.485,-0.37 -0.728,-0.94 -0.728,-1.707 0,-0.486 0.094,-0.88 0.283,-1.183 0.189,-0.303 0.435,-0.542 0.738,-0.717 0.303,-0.175 0.643,-0.3 1.02,-0.374 0.378,-0.074 0.755,-0.132 1.132,-0.172 l 1.294,-0.121 c 0.471,-0.04 0.899,-0.101 1.283,-0.182 0.384,-0.081 0.67,-0.236 0.859,-0.465 v 1.94 c 0,0.135 -0.037,0.394 -0.111,0.778 -0.074,0.384 -0.246,0.782 -0.516,1.193 -0.27,0.41 -0.66,0.775 -1.172,1.091 -0.512,0.317 -1.206,0.475 -2.081,0.475 z m 7.888,4.143 v -5.881 h 0.04 c 0.31,0.849 0.802,1.462 1.476,1.84 0.673,0.376 1.441,0.565 2.304,0.565 0.795,0 1.485,-0.135 2.071,-0.404 a 3.95,3.95 0 0 0 1.455,-1.122 c 0.384,-0.478 0.67,-1.047 0.86,-1.708 0.188,-0.66 0.282,-1.387 0.282,-2.182 0,-0.728 -0.094,-1.422 -0.283,-2.082 a 5.12,5.12 0 0 0 -0.859,-1.738 4.2,4.2 0 0 0 -1.455,-1.193 c -0.586,-0.296 -1.276,-0.444 -2.071,-0.444 -0.566,0 -1.068,0.087 -1.506,0.263 a 4.036,4.036 0 0 0 -1.122,0.656 c -0.31,0.263 -0.559,0.55 -0.748,0.86 -0.188,0.31 -0.323,0.592 -0.404,0.848 h -0.04 v -2.385 h -0.768 v 14.107 z m 3.82,-4.143 c -0.728,0 -1.338,-0.131 -1.83,-0.394 a 3.163,3.163 0 0 1 -1.172,-1.051 4.352,4.352 0 0 1 -0.616,-1.516 8.613,8.613 0 0 1 -0.182,-1.788 c 0,-0.62 0.067,-1.216 0.202,-1.789 a 4.517,4.517 0 0 1 0.657,-1.526 3.415,3.415 0 0 1 1.182,-1.071 c 0.485,-0.27 1.071,-0.404 1.759,-0.404 0.7,0 1.296,0.138 1.788,0.414 0.492,0.276 0.893,0.64 1.203,1.091 0.31,0.452 0.539,0.964 0.687,1.536 a 6.95,6.95 0 0 1 0.222,1.749 c 0,0.646 -0.077,1.256 -0.232,1.829 a 4.503,4.503 0 0 1 -0.708,1.505 c -0.316,0.432 -0.72,0.775 -1.212,1.031 -0.492,0.256 -1.075,0.384 -1.748,0.384 z m 7.261,-11.924 v -2.082 h -0.768 v 2.082 z m 0,12.349 V 40.94 h -0.768 v 10.39 z"
             fill-rule="nonzero"
             id="path348" />
          <g
             transform="translate(73.926,33.556)"
             id="g368">
            <circle
               transform="rotate(45,12.09,3.158)"
               cx="12.09"
               cy="3.158"
               r="1.895"
               id="circle350" />
            <circle
               transform="rotate(45,16.556,7.624)"
               cx="16.556"
               cy="7.6240001"
               r="1.895"
               id="circle352" />
            <circle
               transform="rotate(45,21.022,12.09)"
               cx="21.021999"
               cy="12.09"
               r="1.895"
               id="circle354" />
            <circle
               transform="rotate(45,7.624,7.624)"
               cx="7.6240001"
               cy="7.6240001"
               r="1.895"
               id="circle356" />
            <circle
               opacity="0.5"
               transform="rotate(45,12.09,12.09)"
               cx="12.09"
               cy="12.09"
               r="1.895"
               id="circle358" />
            <circle
               opacity="0.5"
               transform="rotate(45,16.556,16.556)"
               cx="16.556"
               cy="16.556"
               r="1.895"
               id="circle360" />
            <circle
               transform="rotate(45,3.158,12.09)"
               cx="3.158"
               cy="12.09"
               r="1.895"
               id="circle362" />
            <circle
               opacity="0.5"
               transform="rotate(45,7.624,16.556)"
               cx="7.6240001"
               cy="16.556"
               r="1.895"
               id="circle364" />
            <circle
               opacity="0.25"
               transform="rotate(45,12.09,21.022)"
               cx="12.09"
               cy="21.021999"
               r="1.895"
               id="circle366" />
          </g>
        </g>
      </g>
    </g>
  </g>
</svg>
