<?xml version="1.0" encoding="UTF-8" standalone="no"?>
<svg
   width="38"
   height="38"
   version="1.1"
   id="svg26"
   sodipodi:docname="logo.svg"
   inkscape:version="1.2 (1:1.2.1+202207142221+cd75a1ee6d)"
   xmlns:inkscape="http://www.inkscape.org/namespaces/inkscape"
   xmlns:sodipodi="http://sodipodi.sourceforge.net/DTD/sodipodi-0.dtd"
   xmlns="http://www.w3.org/2000/svg"
   xmlns:svg="http://www.w3.org/2000/svg">
  <defs
     id="defs30" />
  <sodipodi:namedview
     id="namedview28"
     pagecolor="#ffffff"
     bordercolor="#666666"
     borderopacity="1.0"
     inkscape:showpageshadow="2"
     inkscape:pageopacity="0.0"
     inkscape:pagecheckerboard="0"
     inkscape:deskcolor="#d1d1d1"
     showgrid="false"
     inkscape:zoom="9.7037037"
     inkscape:cx="67.5"
     inkscape:cy="19.013359"
     inkscape:window-width="1848"
     inkscape:window-height="1016"
     inkscape:window-x="72"
     inkscape:window-y="27"
     inkscape:window-maximized="1"
     inkscape:current-layer="svg26" />
  <g
     fill="#36536b"
     fill-rule="evenodd"
     id="g24">
    <path
       d="m 50.544,33.934 v -7.84 h 0.064 a 5.36,5.36 0 0 0 2.128,1.84 c 0.864,0.416 1.808,0.624 2.832,0.624 1.216,0 2.277,-0.235 3.184,-0.704 a 6.738,6.738 0 0 0 2.272,-1.888 8.147,8.147 0 0 0 1.36,-2.72 11.37,11.37 0 0 0 0.448,-3.2 c 0,-1.173 -0.15,-2.299 -0.448,-3.376 -0.299,-1.077 -0.757,-2.021 -1.376,-2.832 a 6.937,6.937 0 0 0 -2.336,-1.952 c -0.939,-0.49 -2.059,-0.736 -3.36,-0.736 -1.024,0 -1.963,0.203 -2.816,0.608 -0.853,0.405 -1.557,1.056 -2.112,1.952 H 50.32 V 11.598 H 46 v 22.336 z m 3.808,-8.768 c -0.725,0 -1.344,-0.15 -1.856,-0.448 A 3.595,3.595 0 0 1 51.264,23.55 5.044,5.044 0 0 1 50.592,21.87 9.192,9.192 0 0 1 50.384,19.918 c 0,-0.683 0.064,-1.344 0.192,-1.984 a 4.98,4.98 0 0 1 0.656,-1.696 c 0.31,-0.49 0.715,-0.89 1.216,-1.2 0.501,-0.31 1.125,-0.464 1.872,-0.464 0.725,0 1.339,0.155 1.84,0.464 0.501,0.31 0.912,0.715 1.232,1.216 0.32,0.501 0.55,1.072 0.688,1.712 0.139,0.64 0.208,1.29 0.208,1.952 0,0.661 -0.064,1.312 -0.192,1.952 -0.128,0.64 -0.347,1.2 -0.656,1.68 -0.31,0.48 -0.715,0.87 -1.216,1.168 -0.501,0.299 -1.125,0.448 -1.872,0.448 z m 15.882,3.392 c 1.024,0 2.027,-0.15 3.008,-0.448 a 5.921,5.921 0 0 0 2.56,-1.568 6.52,6.52 0 0 0 0.32,1.6 h 4.608 c -0.213,-0.341 -0.363,-0.853 -0.448,-1.536 a 17.288,17.288 0 0 1 -0.128,-2.144 v -8.608 c 0,-1.003 -0.224,-1.808 -0.672,-2.416 A 4.603,4.603 0 0 0 77.754,12.014 7.733,7.733 0 0 0 75.418,11.326 18.543,18.543 0 0 0 72.89,11.15 c -0.917,0 -1.83,0.09 -2.736,0.272 a 7.809,7.809 0 0 0 -2.448,0.912 5.448,5.448 0 0 0 -1.792,1.696 c -0.47,0.704 -0.736,1.59 -0.8,2.656 h 4.544 c 0.085,-0.896 0.384,-1.536 0.896,-1.92 0.512,-0.384 1.216,-0.576 2.112,-0.576 0.405,0 0.784,0.027 1.136,0.08 0.352,0.053 0.661,0.16 0.928,0.32 0.267,0.16 0.48,0.384 0.64,0.672 0.16,0.288 0.24,0.677 0.24,1.168 0.021,0.47 -0.117,0.827 -0.416,1.072 -0.299,0.245 -0.704,0.432 -1.216,0.56 -0.512,0.128 -1.099,0.224 -1.76,0.288 -0.661,0.064 -1.333,0.15 -2.016,0.256 -0.683,0.107 -1.36,0.25 -2.032,0.432 a 5.735,5.735 0 0 0 -1.792,0.816 c -0.523,0.363 -0.95,0.848 -1.28,1.456 -0.33,0.608 -0.496,1.381 -0.496,2.32 0,0.853 0.144,1.59 0.432,2.208 a 4.17,4.17 0 0 0 1.2,1.536 c 0.512,0.405 1.11,0.704 1.792,0.896 a 8.127,8.127 0 0 0 2.208,0.288 z M 71.93,25.55 c -0.363,0 -0.715,-0.032 -1.056,-0.096 A 2.566,2.566 0 0 1 69.978,25.118 1.717,1.717 0 0 1 69.37,24.462 c -0.15,-0.277 -0.224,-0.619 -0.224,-1.024 0,-0.427 0.075,-0.779 0.224,-1.056 0.15,-0.277 0.347,-0.507 0.592,-0.688 a 2.98,2.98 0 0 1 0.864,-0.432 c 0.33,-0.107 0.667,-0.192 1.008,-0.256 0.363,-0.064 0.725,-0.117 1.088,-0.16 0.363,-0.043 0.71,-0.096 1.04,-0.16 0.33,-0.064 0.64,-0.144 0.928,-0.24 0.288,-0.096 0.528,-0.23 0.72,-0.4 v 1.696 c 0,0.256 -0.027,0.597 -0.08,1.024 a 3.428,3.428 0 0 1 -0.432,1.264 c -0.235,0.416 -0.597,0.773 -1.088,1.072 -0.49,0.299 -1.184,0.448 -2.08,0.448 z m 13.962,8.384 c 1.557,0 2.773,-0.288 3.648,-0.864 0.874,-0.576 1.557,-1.536 2.048,-2.88 L 98.5,11.598 H 93.796 L 90.18,22.926 H 90.116 L 86.372,11.598 H 81.54 l 5.792,15.52 c 0.128,0.32 0.192,0.661 0.192,1.024 0,0.49 -0.144,0.939 -0.432,1.344 -0.288,0.405 -0.731,0.64 -1.328,0.704 -0.448,0.021 -0.896,0.01 -1.344,-0.032 -0.448,-0.043 -0.886,-0.085 -1.312,-0.128 v 3.744 c 0.469,0.043 0.933,0.08 1.392,0.112 0.458,0.032 0.922,0.048 1.392,0.048 z m 18.698,-5.408 c 0.789,0 1.514,-0.096 2.176,-0.288 a 6.581,6.581 0 0 0 1.776,-0.8 c 0.522,-0.341 0.965,-0.73 1.328,-1.168 0.362,-0.437 0.64,-0.901 0.832,-1.392 h 0.064 v 0.864 c 0,0.341 0.026,0.656 0.08,0.944 0.053,0.288 0.154,0.539 0.304,0.752 0.149,0.213 0.368,0.384 0.656,0.512 0.288,0.128 0.677,0.192 1.168,0.192 0.34,0 0.672,-0.043 0.992,-0.128 V 26.99 a 5.835,5.835 0 0 1 -0.896,0.096 c -0.278,0 -0.491,-0.059 -0.64,-0.176 a 0.961,0.961 0 0 1 -0.32,-0.464 2.357,2.357 0 0 1 -0.112,-0.64 c -0.011,-0.235 -0.016,-0.47 -0.016,-0.704 v -9.568 c 0,-1.259 -0.454,-2.277 -1.36,-3.056 -0.907,-0.779 -2.352,-1.168 -4.336,-1.168 -1.984,0 -3.515,0.453 -4.592,1.36 -1.078,0.907 -1.66,2.267 -1.744,4.08 h 1.216 c 0.085,-1.472 0.58,-2.57 1.488,-3.296 0.906,-0.725 2.096,-1.088 3.568,-1.088 0.832,0 1.536,0.085 2.112,0.256 0.576,0.17 1.045,0.405 1.408,0.704 0.362,0.299 0.629,0.64 0.8,1.024 0.17,0.384 0.256,0.8 0.256,1.248 0,0.576 -0.032,1.056 -0.096,1.44 a 1.64,1.64 0 0 1 -0.48,0.944 c -0.256,0.245 -0.635,0.437 -1.136,0.576 -0.502,0.139 -1.19,0.24 -2.064,0.304 l -1.888,0.16 c -0.662,0.064 -1.35,0.17 -2.064,0.32 -0.715,0.15 -1.366,0.4 -1.952,0.752 a 4.367,4.367 0 0 0 -1.456,1.44 c -0.384,0.608 -0.576,1.392 -0.576,2.352 0,1.579 0.48,2.747 1.44,3.504 0.96,0.757 2.314,1.136 4.064,1.136 z m 0.032,-1.056 c -1.344,0 -2.4,-0.293 -3.168,-0.88 -0.768,-0.587 -1.152,-1.488 -1.152,-2.704 0,-0.768 0.149,-1.392 0.448,-1.872 0.298,-0.48 0.688,-0.859 1.168,-1.136 a 5.213,5.213 0 0 1 1.616,-0.592 20.778,20.778 0 0 1 1.792,-0.272 l 2.048,-0.192 a 16.93,16.93 0 0 0 2.032,-0.288 c 0.608,-0.128 1.06,-0.373 1.36,-0.736 v 3.072 c 0,0.213 -0.06,0.624 -0.176,1.232 -0.118,0.608 -0.39,1.237 -0.816,1.888 -0.427,0.65 -1.046,1.227 -1.856,1.728 -0.811,0.501 -1.91,0.752 -3.296,0.752 z m 12.49,6.56 v -9.312 h 0.063 c 0.491,1.344 1.27,2.315 2.336,2.912 1.067,0.597 2.283,0.896 3.648,0.896 1.26,0 2.352,-0.213 3.28,-0.64 a 6.254,6.254 0 0 0 2.304,-1.776 c 0.608,-0.757 1.062,-1.659 1.36,-2.704 0.3,-1.045 0.448,-2.197 0.448,-3.456 0,-1.152 -0.149,-2.25 -0.448,-3.296 -0.298,-1.045 -0.752,-1.963 -1.36,-2.752 a 6.651,6.651 0 0 0 -2.304,-1.888 c -0.928,-0.47 -2.02,-0.704 -3.28,-0.704 -0.896,0 -1.69,0.139 -2.384,0.416 a 6.39,6.39 0 0 0 -1.776,1.04 c -0.49,0.416 -0.885,0.87 -1.184,1.36 -0.298,0.49 -0.512,0.939 -0.64,1.344 h -0.064 v -3.776 h -1.216 V 34.03 h 1.216 z m 6.047,-6.56 c -1.152,0 -2.117,-0.208 -2.896,-0.624 a 5.008,5.008 0 0 1 -1.856,-1.664 c -0.458,-0.693 -0.784,-1.493 -0.976,-2.4 a 13.637,13.637 0 0 1 -0.288,-2.832 c 0,-0.981 0.107,-1.925 0.32,-2.832 a 7.152,7.152 0 0 1 1.04,-2.416 5.407,5.407 0 0 1 1.872,-1.696 c 0.768,-0.427 1.696,-0.64 2.784,-0.64 1.11,0 2.054,0.219 2.832,0.656 a 5.599,5.599 0 0 1 1.904,1.728 c 0.491,0.715 0.854,1.525 1.088,2.432 0.235,0.907 0.352,1.83 0.352,2.768 0,1.024 -0.122,1.99 -0.368,2.896 -0.245,0.907 -0.618,1.701 -1.12,2.384 a 5.487,5.487 0 0 1 -1.92,1.632 c -0.778,0.405 -1.7,0.608 -2.768,0.608 z M 134.657,8.59 V 5.294 h -1.216 V 8.59 Z m 0,19.552 V 11.694 h -1.216 v 16.448 z"
       fill-rule="nonzero"
       id="path2" />
    <g
       id="g22">
      <circle
         transform="rotate(45,19.142,5)"
         cx="19.142"
         cy="5"
         r="3"
         id="circle4" />
      <circle
         transform="rotate(45,26.213,12.071)"
         cx="26.212999"
         cy="12.071"
         r="3"
         id="circle6" />
      <circle
         transform="rotate(45,33.284,19.142)"
         cx="33.284"
         cy="19.142"
         r="3"
         id="circle8" />
      <circle
         transform="rotate(45,12.071,12.071)"
         cx="12.071"
         cy="12.071"
         r="3"
         id="circle10" />
      <circle
         opacity="0.5"
         transform="rotate(45,19.142,19.142)"
         cx="19.142"
         cy="19.142"
         r="3"
         id="circle12" />
      <circle
         opacity="0.5"
         transform="rotate(45,26.213,26.213)"
         cx="26.212999"
         cy="26.212999"
         r="3"
         id="circle14" />
      <circle
         transform="rotate(45,5,19.142)"
         cx="5"
         cy="19.142"
         r="3"
         id="circle16" />
      <circle
         opacity="0.5"
         transform="rotate(45,12.071,26.213)"
         cx="12.071"
         cy="26.212999"
         r="3"
         id="circle18" />
      <circle
         opacity="0.25"
         transform="rotate(45,19.142,33.284)"
         cx="19.142"
         cy="33.284"
         r="3"
         id="circle20" />
    </g>
  </g>
</svg>
